<svg class="icon" viewBox="0 0 1025 1024" xmlns="http://www.w3.org/2000/svg" width="200.195" height="200"><defs><style/></defs><path d="M293.069 755.2c-12.083 0-24.269-4.25-33.997-12.902L0 512l273.46-243.098c21.094-18.688 53.452-16.896 72.242 4.25 18.79 21.146 16.896 53.504-4.25 72.294L154.113 512l172.954 153.702c21.145 18.79 23.04 51.15 4.25 72.295-10.087 11.417-24.167 17.203-38.247 17.203zm457.984-.102L1024.512 512 765.44 281.702c-21.146-18.79-53.504-16.896-72.243 4.25-18.79 21.146-16.896 53.504 4.25 72.294L870.4 512 683.06 678.502c-21.146 18.79-23.04 51.15-4.25 72.295C688.896 762.214 702.976 768 717.056 768c12.083 0 24.269-4.25 33.997-12.902zm-239.514 72.55l102.4-614.4c4.66-27.904-14.182-54.272-42.086-58.931-28.007-4.71-54.323 14.182-58.88 42.086l-102.4 614.4c-4.66 27.904 14.182 54.272 42.086 58.931a52.65 52.65 0 0 0 8.448.666c24.576 0 46.285-17.766 50.432-42.752z"/></svg>