<svg class="icon" viewBox="0 0 1024 1024" xmlns="http://www.w3.org/2000/svg" width="128" height="128"><defs><style/></defs><path d="M586.24 868.116c-16.005-15.994-35.328-23.93-57.979-23.93-22.661 0-41.984 8.058-57.989 23.93-16.005 16.006-24.064 35.328-24.064 57.856 0 22.651 7.936 41.851 24.064 57.846 16.005 15.995 35.328 23.931 57.979 23.931 22.661 0 41.861-7.936 57.989-23.93 16.005-15.996 23.93-35.329 24.064-57.857 0-22.395-8.07-41.718-24.064-57.846M313.477 747.694c-17.541-17.674-38.789-26.378-63.744-26.378s-46.08 8.837-63.744 26.368c-17.541 17.53-26.368 38.779-26.368 63.734 0 24.832 8.827 46.08 26.368 63.61 17.664 17.664 38.912 26.368 63.744 26.368s46.08-8.837 63.744-26.368c17.664-17.53 26.491-38.778 26.491-63.61 0-24.822-8.837-46.08-26.501-63.734M65.659 463.432a97.628 97.628 0 0 0-21.115 31.232 95.54 95.54 0 0 0-7.68 38.267c0 13.312 2.56 26.112 7.68 38.266a97.628 97.628 0 0 0 21.115 31.232 97.28 97.28 0 0 0 31.232 20.992c12.165 5.12 24.965 7.803 38.277 7.803s26.112-2.56 38.267-7.813a97.28 97.28 0 0 0 31.232-20.992 97.628 97.628 0 0 0 21.125-31.232c5.12-12.155 7.68-24.944 7.68-38.256 0-13.312-2.56-26.112-7.68-38.267a97.628 97.628 0 0 0-21.125-31.232 95.252 95.252 0 0 0-31.232-20.992c-12.155-5.12-24.955-7.68-38.267-7.68s-26.112 2.56-38.267 7.68a95.252 95.252 0 0 0-31.232 20.992m184.187-315.484c-14.47 0-28.293 2.816-41.472 8.325a104.294 104.294 0 0 0-33.792 22.773c-9.861 9.862-17.408 21.126-22.784 33.792a104.468 104.468 0 0 0-8.448 41.472c0 14.46 2.816 28.283 8.448 41.462a105.667 105.667 0 0 0 22.784 33.792 105.677 105.677 0 0 0 33.792 22.774c13.179 5.632 27.003 8.325 41.472 8.325a105.677 105.677 0 0 0 75.264-31.099c9.861-9.861 17.408-21.125 22.784-33.792 5.632-13.179 8.325-27.003 8.325-41.472s-2.816-28.283-8.325-41.462a105.667 105.667 0 0 0-22.784-33.792 105.677 105.677 0 0 0-75.264-31.098m384.256 36.474c6.021-14.202 8.96-29.05 8.96-44.544 0-15.605-2.939-30.453-8.96-44.656-5.765-13.691-13.957-25.856-24.576-36.475s-22.784-18.811-36.608-24.699a113.224 113.224 0 0 0-44.667-8.96c-15.616 0-30.464 2.939-44.677 8.96a111.34 111.34 0 0 0-36.352 24.576 113.213 113.213 0 0 0-24.576 36.465 113.183 113.183 0 0 0-8.96 44.667c0 15.493 3.072 30.34 8.96 44.544a111.319 111.319 0 0 0 24.576 36.352 112.691 112.691 0 0 0 36.352 24.576c14.213 6.01 29.061 9.082 44.677 9.082 15.483 0 30.464-3.072 44.667-9.093a113.234 113.234 0 0 0 36.485-24.576 111.79 111.79 0 0 0 24.699-36.219m225.024 679.086c14.336-14.336 21.504-31.744 21.504-52.09 0-20.347-7.168-37.755-21.504-52.081-14.47-14.336-31.867-21.504-52.224-21.504-20.347 0-37.755 7.168-52.224 21.504-14.336 14.336-21.627 31.744-21.627 52.08 0 20.358 7.168 37.755 21.627 52.091 14.336 14.336 31.744 21.504 52.224 21.504 20.347.134 37.765-7.034 52.224-21.504M921.6 467.395c-18.043 0-33.536 6.4-46.336 19.2-12.8 12.8-19.2 28.282-19.2 46.336 0 18.042 6.4 33.525 19.2 46.202 12.8 12.8 28.293 19.19 46.336 19.19s33.536-6.4 46.336-19.19c12.8-12.8 19.2-28.16 19.2-46.202 0-18.054-6.4-33.536-19.2-46.336-12.8-12.8-28.293-19.2-46.336-19.2m-57.344-212.962c0-15.739-5.632-29.307-16.896-40.448-11.13-11.264-24.71-16.763-40.448-16.763-15.872 0-29.307 5.632-40.57 16.774-11.265 11.13-16.897 24.698-16.897 40.437 0 15.872 5.632 29.307 16.896 40.571 11.264 11.131 24.699 16.763 40.571 16.763 15.872 0 29.307-5.632 40.448-16.763 11.264-11.264 16.896-24.699 16.896-40.57z" fill="#707070"/></svg>