<?xml version="1.0" standalone="no"?><!DOCTYPE svg PUBLIC "-//W3C//DTD SVG 1.1//EN" "http://www.w3.org/Graphics/SVG/1.1/DTD/svg11.dtd"><svg t="1507973340135" class="icon" style="" viewBox="0 0 1024 1024" version="1.1" xmlns="http://www.w3.org/2000/svg" p-id="1072" xmlns:xlink="http://www.w3.org/1999/xlink" width="128" height="128"><defs><style type="text/css"></style></defs><path d="M586.24 868.11648c-16.00512-15.99488-35.328-23.93088-57.97888-23.93088-22.66112 0-41.984 8.05888-57.98912 23.93088-16.00512 16.00512-24.064 35.328-24.064 57.856 0 22.65088 7.936 41.85088 24.064 57.84576 16.00512 15.99488 35.328 23.93088 57.97888 23.93088 22.66112 0 41.86112-7.936 57.98912-23.93088 16.00512-15.99488 23.93088-35.328 24.064-57.856 0-22.39488-8.06912-41.71776-24.064-57.84576m-272.76288-120.4224c-17.54112-17.67424-38.78912-26.37824-63.744-26.37824s-46.08 8.83712-63.744 26.368c-17.54112 17.53088-26.368 38.77888-26.368 63.73376 0 24.832 8.82688 46.08 26.368 63.61088 17.664 17.664 38.912 26.368 63.744 26.368s46.08-8.83712 63.744-26.368c17.664-17.53088 26.49088-38.77888 26.49088-63.61088 0-24.82176-8.83712-46.08-26.50112-63.73376m-247.808-284.25216a97.62816 97.62816 0 0 0-21.11488 31.232 95.5392 95.5392 0 0 0-7.68 38.26688c0 13.312 2.56 26.112 7.68 38.26688a97.62816 97.62816 0 0 0 21.11488 31.232 97.28 97.28 0 0 0 31.232 20.992c12.16512 5.12 24.96512 7.80288 38.27712 7.80288s26.112-2.56 38.26688-7.81312a97.28 97.28 0 0 0 31.232-20.992 97.62816 97.62816 0 0 0 21.12512-31.232c5.12-12.15488 7.68-24.94464 7.68-38.25664 0-13.312-2.56-26.112-7.68-38.26688a97.62816 97.62816 0 0 0-21.12512-31.232 95.25248 95.25248 0 0 0-31.232-20.992c-12.15488-5.12-24.95488-7.68-38.26688-7.68s-26.112 2.56-38.26688 7.68a95.25248 95.25248 0 0 0-31.232 20.992M249.856 147.94752c-14.46912 0-28.29312 2.816-41.472 8.32512a104.2944 104.2944 0 0 0-33.792 22.77376c-9.86112 9.86112-17.408 21.12512-22.784 33.792a104.46848 104.46848 0 0 0-8.448 41.472c0 14.45888 2.816 28.28288 8.448 41.46176a105.66656 105.66656 0 0 0 22.784 33.792 105.6768 105.6768 0 0 0 33.792 22.77376c13.17888 5.632 27.00288 8.32512 41.472 8.32512a105.6768 105.6768 0 0 0 75.264-31.09888c9.86112-9.86112 17.408-21.12512 22.784-33.792 5.632-13.17888 8.32512-27.00288 8.32512-41.472s-2.816-28.28288-8.32512-41.46176a105.66656 105.66656 0 0 0-22.784-33.792 105.6768 105.6768 0 0 0-75.264-31.09888m384.256 36.47488c6.02112-14.20288 8.96-29.05088 8.96-44.544 0-15.60576-2.93888-30.45376-8.96-44.65664-5.76512-13.69088-13.95712-25.856-24.576-36.47488S586.752 39.936 572.928 34.048a113.22368 113.22368 0 0 0-44.66688-8.96c-15.616 0-30.464 2.93888-44.67712 8.96a111.33952 111.33952 0 0 0-36.352 24.576 113.21344 113.21344 0 0 0-24.576 36.46464 113.18272 113.18272 0 0 0-8.96 44.66688c0 15.49312 3.072 30.34112 8.96 44.544a111.31904 111.31904 0 0 0 24.576 36.352 112.6912 112.6912 0 0 0 36.352 24.576c14.21312 6.01088 29.06112 9.08288 44.67712 9.08288 15.48288 0 30.464-3.072 44.66688-9.09312a113.23392 113.23392 0 0 0 36.48512-24.576 111.79008 111.79008 0 0 0 24.69888-36.21888M859.136 863.50848c14.336-14.336 21.504-31.744 21.504-52.09088 0-20.34688-7.168-37.75488-21.504-52.08064-14.46912-14.336-31.86688-21.504-52.224-21.504-20.34688 0-37.75488 7.168-52.224 21.504-14.336 14.336-21.62688 31.744-21.62688 52.08064 0 20.35712 7.168 37.75488 21.62688 52.09088 14.336 14.336 31.744 21.504 52.224 21.504 20.34688 0.13312 37.76512-7.03488 52.224-21.504M921.6 467.39456c-18.04288 0-33.536 6.4-46.336 19.2-12.8 12.8-19.2 28.28288-19.2 46.336 0 18.04288 6.4 33.52576 19.2 46.20288 12.8 12.8 28.29312 19.18976 46.336 19.18976s33.536-6.4 46.336-19.18976c12.8-12.8 19.2-28.16 19.2-46.20288 0-18.05312-6.4-33.536-19.2-46.336-12.8-12.8-28.29312-19.2-46.336-19.2m-57.344-212.96128c0-15.73888-5.632-29.30688-16.896-40.448-11.13088-11.264-24.70912-16.76288-40.448-16.76288-15.872 0-29.30688 5.632-40.57088 16.77312-11.264 11.13088-16.896 24.69888-16.896 40.43776 0 15.872 5.632 29.30688 16.896 40.57088 11.264 11.13088 24.69888 16.76288 40.57088 16.76288 15.872 0 29.30688-5.632 40.448-16.76288 11.264-11.264 16.896-24.69888 16.896-40.57088z" fill="#707070" p-id="1073"></path></svg>