<svg class="icon" viewBox="0 0 1024 1024" xmlns="http://www.w3.org/2000/svg" width="200" height="200"><defs><style/></defs><path d="M223.944 322.759c13.424-13.415 20.394-30.05 20.394-48.83 0-18.78-6.971-34.887-20.394-48.301-13.415-13.415-29.512-20.386-48.292-20.386s-35.416 6.972-48.83 20.386c-13.415 13.414-19.857 29.521-19.857 48.3 0 18.78 6.441 35.416 19.857 48.831 13.413 13.413 30.05 19.856 48.83 19.856 18.78.001 34.877-6.442 48.292-19.856zm592.952 260.257c0 18.781-6.436 34.877-19.848 48.29l-263.48 264.007c-13.952 13.414-30.05 19.857-48.83 19.857-18.78 0-34.877-6.443-48.291-19.857L52.769 511.107c-13.413-13.414-25.222-31.126-34.877-54.196-9.125-23.078-13.953-44.002-13.953-62.783V170.894c0-18.78 6.972-34.877 20.396-48.29 13.414-13.416 29.512-20.387 48.293-20.387h223.224c18.78 0 39.714 4.827 62.783 14.482 23.078 9.125 41.32 20.934 54.733 34.348l383.679 383.13c13.413 13.952 19.849 30.05 19.849 48.84zm206.059 0c0 18.781-6.443 34.877-19.858 48.29L739.63 895.313c-13.953 13.414-30.05 19.857-48.83 19.857-25.762 0-38.636-9.655-60.1-31.656l252.199-252.209c13.414-13.413 19.857-29.51 19.857-48.29 0-18.789-6.443-34.887-19.857-48.84L499.23 151.046c-13.415-13.414-31.666-25.222-54.735-34.348-23.079-9.655-44.002-14.482-62.783-14.482h120.2c18.78 0 39.704 4.827 62.783 14.482 23.07 9.125 41.32 20.934 54.733 34.348l383.668 383.129c13.416 13.954 19.859 30.051 19.859 48.841z"/></svg>